<svg version="1" xmlns="http://www.w3.org/2000/svg" width="933.333" height="933.333" viewBox="0 0 700.000000 700.000000"><path d="M317 78.7c-25 43.4-46.3 80.4-47.3 82.3-2.4 4.5-.8 2.5 7.3-9.1 25.7-36.7 69-65.3 114-75.2 18.2-4 29.2-5 49.3-4.4 28.8.8 51 6 76.7 17.9 4.7 2.1 8.1 3.5 7.5 3-.9-.9-48.5-28.5-133.5-77.4C375.9 7.1 363.3 0 363 0c-.3 0-21 35.4-46 78.7zM542.4 104.2c1.6 1.3 5.1 3.9 7.7 5.9 31.1 22.9 54.9 55.7 67.7 93 8.1 23.6 10.7 41.8 9.9 69.2-.4 15.2-1.1 21.8-3.1 31.5-2.9 13.6-7.3 28-11.2 36.9-5.2 11.6-6.5 14.8-5.6 13.8 1-1.1 92.2-159.1 92.2-159.8 0-.3-4.2-2.8-9.2-5.8-5.1-2.9-40.8-23.5-79.3-45.7-38.5-22.2-70.4-40.6-71-40.9-.5-.2.3.6 1.9 1.9zM466.5 150.5c-54.7 8.6-111.1 60.2-130.6 119.6-6.5 19.8-8.3 37.9-5.4 54.4 8 45.5 50.2 65.9 101.3 48.8 13.9-4.6 33.3-15.3 44.7-24.7 10.3-8.4 18.6-16 22.1-20.3 3.5-4.3 3.6-4.4 1.8-6.4-4-4.5-4.6-4.3-15.7 4.5-27.1 21.5-44.2 29.6-62.7 29.6-22.1 0-38.9-10.7-45.1-28.8-3.7-10.9-3.6-22.6.7-41.3l1.5-6.6 12.2-1.7c27.9-3.9 52-11 73.7-21.7 37.7-18.7 58.2-44 58.1-71.9-.1-26.4-21.5-39.1-56.6-33.5zm14.6 13.8c1.9 1.2 4.4 4.2 5.7 6.7 2.1 4 2.3 5.5 1.9 13-.9 15.4-7.1 28.1-20.2 41.4-16.1 16.2-39.7 28.8-71.5 38.1-6.8 1.9-12.7 3.4-13.1 3.3-1-.4 9.7-27.3 15-37.8 15.3-30.4 43-59.5 62.4-65.5 7-2.2 15.8-1.9 19.8.8zM259.5 177.7c-10.9 16.6-28.5 35.5-44 47.4-26.8 20.5-57.3 33.4-91 38.4-13.1 2-41.9 2-55 0-19.6-2.9-42.5-10-58.6-18-9.1-4.6-4.2-1.3 13.1 8.7 152.8 88 144.2 82.9 142.7 85.2-.8 1.1-14.2 24.4-29.9 51.6-15.7 27.2-36 62.5-45.2 78.3-9.1 15.8-16.6 29.1-16.6 29.4 0 .4 2.3-2.7 5.1-6.8 19-27.6 45.8-50.1 77.2-64.9 51.9-24.4 113.3-24.2 165.5.5 6.1 3 11.2 5.2 11.2 5.1 0-.2-2.8-2-6.2-4.1-15.5-9.6-36.1-28.8-48.4-45.1-43.6-58.1-51.7-135.5-20.9-200.2 3-6.1 5.2-11.2 5.1-11.2-.2 0-2 2.6-4.1 5.7zM596.5 372.2c-28.3 42.8-70.9 72.1-120.6 83.2-42.1 9.3-87.3 4.1-125.4-14.3-5.5-2.7-10.1-4.8-10.2-4.7-.2.1 4.1 3.2 9.5 6.9 55.7 37.8 89 107.1 83.3 173.4-2.2 25.8-8.1 48.1-18.2 69.2-2.7 5.8-4.6 10.1-4 9.6.7-.7 77-132.4 93.8-161.8.6-1.2 9.3 3.4 42.3 22.5 59.8 34.5 114.9 66.2 119.5 68.8 5 2.8 3.1 1.2-8.6-7-10.5-7.4-28.4-24-36.9-34.5-48.5-59.3-57.5-141.9-23.1-210.4 2.3-4.4 4-8.1 3.8-8.1-.2 0-2.6 3.3-5.2 7.2z"/></svg>