<?xml version="1.0" encoding="UTF-8" standalone="no"?>
<svg
   xmlns:dc="http://purl.org/dc/elements/1.1/"
   xmlns:cc="http://creativecommons.org/ns#"
   xmlns:rdf="http://www.w3.org/1999/02/22-rdf-syntax-ns#"
   xmlns:svg="http://www.w3.org/2000/svg"
   xmlns="http://www.w3.org/2000/svg"
   xmlns:sodipodi="http://sodipodi.sourceforge.net/DTD/sodipodi-0.dtd"
   xmlns:inkscape="http://www.inkscape.org/namespaces/inkscape"
   sodipodi:docname="edht.svg"
   inkscape:version="1.0 (4035a4fb49, 2020-05-01)"
   id="svg8"
   version="1.1"
   viewBox="0 0 52.468935 9.525"
   height="36"
   width="198.30779">
  <defs
     id="defs2" />
  <sodipodi:namedview
     units="px"
     inkscape:snap-bbox="true"
     inkscape:snap-intersection-paths="false"
     inkscape:snap-global="false"
     inkscape:window-maximized="1"
     inkscape:window-y="0"
     inkscape:window-x="1970"
     inkscape:window-height="1061"
     inkscape:window-width="1870"
     showgrid="false"
     inkscape:document-rotation="0"
     inkscape:current-layer="layer1"
     inkscape:document-units="mm"
     inkscape:cy="47.967164"
     inkscape:cx="96.195485"
     inkscape:zoom="3.6262717"
     inkscape:pageshadow="2"
     inkscape:pageopacity="0.0"
     borderopacity="1.0"
     bordercolor="#666666"
     pagecolor="#ffffff"
     id="base"
     lock-margins="false"
     fit-margin-top="0"
     fit-margin-left="0"
     fit-margin-right="0"
     fit-margin-bottom="0" />
  <metadata
     id="metadata5">
    <rdf:RDF>
      <cc:Work
         rdf:about="">
        <dc:format>image/svg+xml</dc:format>
        <dc:type
           rdf:resource="http://purl.org/dc/dcmitype/StillImage" />
        <dc:title></dc:title>
      </cc:Work>
    </rdf:RDF>
  </metadata>
  <g
     id="layer1"
     inkscape:groupmode="layer"
     inkscape:label="Layer 1"
     transform="translate(-145.0869,-46.077452)">
    <g
       transform="matrix(0.251917,0,0,0.251917,108.53704,34.469759)"
       id="g1028">
      <g
         transform="matrix(4.1513575,0,0,4.1513575,-603.78916,-171.6576)"
         aria-label="ED A"
         id="text875"
         style="font-style:normal;font-variant:normal;font-weight:normal;font-stretch:normal;font-size:10.5833px;line-height:1.25;font-family:'DIN 1451 Mittelschrift';-inkscape-font-specification:'DIN 1451 Mittelschrift';letter-spacing:0px;word-spacing:0px;fill:#ececec;fill-opacity:1;stroke:none;stroke-width:0.264583">
        <path
           d="m 191.59653,60.863886 v -7.529232 h 4.81623 v 1.080034 h -3.67418 v 2.144565 h 3.13158 v 1.018023 h -3.13158 v 2.211744 h 3.67418 v 1.074866 z"
           style="fill:#ececec;fill-opacity:1;stroke-width:0.264583"
           id="path4335" />
        <path
           d="m 197.47729,60.863886 v -7.529232 h 2.63549 q 1.54512,0 2.29442,1.266069 0.27906,0.480589 0.34107,0.899167 0.062,0.418578 0.062,1.601964 0,1.271236 -0.0879,1.700149 -0.0827,0.423746 -0.3359,0.816485 -0.33589,0.527098 -0.925,0.888832 -0.58394,0.356566 -1.4211,0.356566 z m 1.14204,-6.449198 v 5.374332 h 1.36943 q 0.9405,0 1.39525,-0.656288 0.18604,-0.28422 0.23255,-0.60978 0.0517,-0.330729 0.0517,-1.379757 0,-1.012855 -0.0568,-1.400427 -0.0517,-0.387572 -0.27905,-0.697629 -0.47026,-0.630451 -1.34358,-0.630451 z"
           style="fill:#ececec;fill-opacity:1;stroke-width:0.264583"
           id="path4337" />
        <path
           d="m 206.64601,60.858719 2.74918,-7.5344 h 0.94051 l 2.74917,7.5344 h -1.19888 l -0.57878,-1.700149 h -2.8577 l -0.59944,1.700149 z m 2.1394,-2.707837 h 2.18074 q -0.23771,-0.697629 -0.37724,-1.090369 -0.13436,-0.397907 -0.23771,-0.702797 -0.0982,-0.30489 -0.20154,-0.620115 -0.10335,-0.315225 -0.27388,-0.852659 -0.18087,0.558104 -0.28939,0.894 -0.10852,0.330728 -0.21187,0.640785 -0.0982,0.310058 -0.23254,0.692462 -0.1292,0.382405 -0.35657,1.038693 z"
           style="fill:#ececec;fill-opacity:1;stroke-width:0.264583"
           id="path4339" />
      </g>
      <g
         transform="matrix(4.1513575,0,0,4.1513575,-603.78916,-171.6576)"
         aria-label="e"
         id="text879"
         style="font-style:normal;font-variant:normal;font-weight:normal;font-stretch:normal;font-size:10.5833px;line-height:1.25;font-family:'DIN 1451 Mittelschrift';-inkscape-font-specification:'DIN 1451 Mittelschrift';letter-spacing:0px;word-spacing:0px;fill:#d72638;fill-opacity:1;stroke:none;stroke-width:0.264583">
        <path
           d="m 206.49931,59.705139 c -0.76199,0.624415 -1.09008,0.793748 -1.54516,0.793748 -0.60325,0 -0.99483,-0.380999 -0.99483,-0.952497 0,-0.15875 0.0212,-0.317499 0.10584,-0.656165 l 0.29633,-0.04233 c 1.58749,-0.222249 2.70932,-1.02658 2.70932,-1.936744 0,-0.444498 -0.3175,-0.719664 -0.84666,-0.719664 -1.524,0 -3.18557,1.746244 -3.18557,3.333739 0,0.857247 0.57149,1.449912 1.39699,1.449912 0.75142,0 1.56633,-0.433915 2.19074,-1.142996 z m -2.36007,-1.047746 0.17991,-0.465666 c 0.35984,-0.941913 1.143,-1.756827 1.68275,-1.756827 0.22225,0 0.37041,0.169332 0.37041,0.412748 0,0.391582 -0.23283,1.322913 -2.23307,1.809745 z"
           style="font-style:italic;font-variant:normal;font-weight:normal;font-stretch:normal;font-family:FreeSerif;-inkscape-font-specification:'FreeSerif Italic';fill:#d72638;fill-opacity:1;stroke-width:0.264583"
           id="path4342" />
      </g>
      <g
         transform="matrix(4.1513575,0,0,4.1513575,-603.78916,-171.6576)"
         aria-label="hub"
         id="text883"
         style="font-style:normal;font-variant:normal;font-weight:normal;font-stretch:normal;font-size:10.5833px;line-height:1.25;font-family:'DIN 1451 Mittelschrift';-inkscape-font-specification:'DIN 1451 Mittelschrift';letter-spacing:0px;word-spacing:0px;fill:#808080;fill-opacity:1;stroke:none;stroke-width:0.264583">
        <path
           d="m 214.92185,60.863886 v -7.529232 h 1.08003 v 2.738842 h 0.0207 q 0.50126,-0.635618 1.39526,-0.635618 0.62528,0 1.20406,0.475422 0.58394,0.475422 0.58394,1.384924 v 3.565662 h -1.08003 v -3.193593 q 0,-0.542601 -0.30489,-0.847491 -0.29973,-0.30489 -0.74931,-0.30489 -0.46509,0 -0.76998,0.30489 -0.29972,0.30489 -0.29972,0.847491 v 3.193593 z"
           style="fill:#808080;fill-opacity:1;stroke-width:0.264583"
           id="path4345" />
        <path
           d="M 220.60107,59.065552 V 55.49989 h 1.08003 v 3.198761 q 0,0.547768 0.29973,0.852658 0.30489,0.299723 0.76997,0.299723 0.44959,0 0.74931,-0.299723 0.30489,-0.30489 0.30489,-0.852658 V 55.49989 h 1.08003 v 5.363996 H 223.805 v -0.568438 h -0.0207 q -0.50126,0.63045 -1.38493,0.63045 -0.63562,0 -1.21956,-0.470254 -0.57877,-0.475422 -0.57877,-1.390092 z"
           style="fill:#808080;fill-opacity:1;stroke-width:0.264583"
           id="path4347" />
        <path
           d="m 226.28029,60.863886 v -7.529232 h 1.08003 v 2.738842 q 0.29973,-0.284219 0.63046,-0.459918 0.33589,-0.1757 0.75447,-0.1757 0.49092,0 0.84749,0.201538 0.35657,0.19637 0.58911,0.496092 0.22221,0.289387 0.29972,0.676959 0.0827,0.382404 0.0827,1.364254 0,0.992184 -0.0827,1.384924 -0.0775,0.387572 -0.29972,0.671791 -0.23254,0.30489 -0.58911,0.50126 -0.35657,0.191202 -0.84749,0.191202 -0.82682,0 -1.38493,-0.620115 v 0.558103 z m 2.1394,-4.345974 q -0.75964,0 -0.9095,0.542601 -0.14987,0.542601 -0.14987,1.116208 0,0.589109 0.14987,1.13171 0.14986,0.542601 0.9095,0.542601 0.75964,0 0.9095,-0.521931 0.15503,-0.52193 0.15503,-1.15238 0,-0.614948 -0.15503,-1.136878 -0.14986,-0.521931 -0.9095,-0.521931 z"
           style="fill:#808080;fill-opacity:1;stroke-width:0.264583"
           id="path4349" />
      </g>
      <g
         aria-label="e"
         id="text1401"
         style="font-style:normal;font-variant:normal;font-weight:normal;font-stretch:normal;font-size:27.4557px;line-height:1.25;font-family:'DIN 1451 Mittelschrift';-inkscape-font-specification:'DIN 1451 Mittelschrift';letter-spacing:0px;word-spacing:0px;fill:#d72638;fill-opacity:1;stroke:none;stroke-width:0.686393">
        <path
           d="m 171.86046,63.266118 c -1.97681,1.619886 -2.82794,2.059177 -4.00853,2.059177 -1.56498,0 -2.58084,-0.988405 -2.58084,-2.471013 0,-0.411835 0.0549,-0.823671 0.27456,-1.702253 l 0.76876,-0.109823 c 4.11836,-0.57657 7.02866,-2.663203 7.02866,-5.024393 0,-1.153139 -0.82367,-1.866988 -2.19646,-1.866988 -3.95362,0 -8.26416,4.530191 -8.26416,8.648546 0,2.223912 1.48261,3.761431 3.62415,3.761431 1.94935,0 4.06344,-1.125684 5.68333,-2.965216 z m -6.12262,-2.718115 0.46675,-1.20805 c 0.93349,-2.443558 2.96521,-4.557647 4.36545,-4.557647 0.57657,0 0.96095,0.439292 0.96095,1.070773 0,1.015861 -0.60402,3.431962 -5.79315,4.694924 z"
           style="font-style:italic;font-variant:normal;font-weight:normal;font-stretch:normal;font-family:FreeSerif;-inkscape-font-specification:'FreeSerif Italic';fill:#d72638;fill-opacity:1;stroke-width:0.686393"
           id="path4332" />
      </g>
      <path
         style="fill:#ef9d26;fill-opacity:1;stroke:none;stroke-width:0.264583px;stroke-linecap:butt;stroke-linejoin:miter;stroke-opacity:1"
         d="m 173.80833,51.342602 a 10.51271,10.51271 0 0 1 4.88277,6.374709 10.51271,10.51271 0 0 1 -1.04138,7.961553 l 5.24726,-9.088514 z"
         id="path1403" />
      <path
         style="fill:#ef9d26;fill-opacity:1;stroke:none;stroke-width:0.264583px;stroke-linecap:butt;stroke-linejoin:miter;stroke-opacity:1"
         d="m 159.42354,55.196469 a 10.51271,10.51271 0 0 1 -6.37461,4.883251 10.51271,10.51271 0 0 1 -7.96203,-1.041234 l 9.08913,5.247618 -5.19449,8.997868 a 10.51271,10.51271 0 0 1 6.32146,-4.791975 10.51271,10.51271 0 0 1 7.96155,1.041363 10.51271,10.51271 0 0 1 -4.88261,-6.374226 10.51271,10.51271 0 0 1 1.0416,-7.962665 z"
         id="path1405" />
      <path
         style="fill:#427588;fill-opacity:1;stroke:none;stroke-width:0.264583px;stroke-linecap:butt;stroke-linejoin:miter;stroke-opacity:1"
         d="m 163.29556,69.551264 a 10.51271,10.51271 0 0 1 4.88274,6.374716 10.51271,10.51271 0 0 1 -1.04135,7.961545 l 5.24774,-9.088645 9.10385,5.256524 3.5e-4,-6.32e-4 a 10.51271,10.51271 0 0 1 -4.89829,-6.38286 10.51271,10.51271 0 0 1 1.04122,-7.962038 10.51271,10.51271 0 0 1 -6.37422,4.882621 10.51271,10.51271 0 0 1 -7.96204,-1.041231 z"
         id="path1409" />
      <path
         style="fill:#427588;fill-opacity:1;stroke:none;stroke-width:0.264583px;stroke-linecap:butt;stroke-linejoin:miter;stroke-opacity:1"
         d="m 164.68881,46.077452 -5.1945,8.99787 a 10.51271,10.51271 0 0 1 6.32146,-4.791987 10.51271,10.51271 0 0 1 7.94194,1.030033 z"
         id="path1411" />
    </g>
  </g>
</svg>
