<svg xmlns="http://www.w3.org/2000/svg" xmlns:xlink="http://www.w3.org/1999/xlink" viewBox="0 0 42.94 42.94" height="162.29" width="162.29" xmlns:v="https://vecta.io/nano"><defs><linearGradient id="A" gradientUnits="userSpaceOnUse"><stop offset="0" stop-color="#427588"/><stop offset="1" stop-color="#256e93"/></linearGradient><linearGradient id="B" gradientUnits="userSpaceOnUse"><stop offset="0" stop-color="#ef9d26"/><stop offset="1" stop-color="#f2940d"/></linearGradient><linearGradient y2="21.72" x2="259.8" y1="22.78" x1="255.25" id="C" xlink:href="#B"/><linearGradient y2="15.95" x2="280.85" y1="15.13" x1="283.55" id="D" xlink:href="#B"/><linearGradient y2="29.33" x2="273.04" y1="33.86" x1="274.42" id="E" xlink:href="#A"/><linearGradient y2="8.2" x2="267.51" y1="5.31" x1="266.74" id="F" xlink:href="#A"/></defs><g transform="translate(-246.11 -1.38)"><path d="M273.53 21.52c-1.98 1.62-2.83 2.06-4.01 2.06-1.56 0-2.58-.99-2.58-2.47 0-.41.05-.82.27-1.7l.77-.11c4.12-.58 7.03-2.66 7.03-5.02 0-1.15-.82-1.87-2.2-1.87-3.95 0-8.26 4.53-8.26 8.65 0 2.22 1.48 3.76 3.62 3.76 1.95 0 4.06-1.13 5.68-2.97zm-6.12-2.72l.47-1.21c.93-2.44 2.97-4.56 4.37-4.56.58 0 .96.44.96 1.07 0 1.02-.6 3.43-5.79 4.69z" fill="#d72638"/><path d="M275.47 9.6a10.51 10.51 0 0 1 3.84 14.34l5.25-9.09z" fill="url(#D)"/><path d="M261.09 13.45a10.51 10.51 0 0 1-14.34 3.84l9.09 5.25-5.19 9a10.51 10.51 0 0 1 14.28-3.75 10.51 10.51 0 0 1-3.84-14.34z" fill="url(#C)"/><path d="M264.96 27.8a10.51 10.51 0 0 1 3.84 14.34l5.25-9.09 9.1 5.26h0a10.51 10.51 0 0 1-3.86-14.34 10.51 10.51 0 0 1-14.34 3.84z" fill="url(#E)"/><path d="M266.35 4.33l-5.19 9a10.51 10.51 0 0 1 14.26-3.76z" fill="url(#F)"/></g></svg>