<svg xmlns="http://www.w3.org/2000/svg" viewBox="0 0 5.33 3.704" height="13.999" width="20.145"><defs><linearGradient y2="112.932" x2="146.007" y1="117.487" x1="144.283" id="A" gradientUnits="userSpaceOnUse"><stop offset="0" stop-color="#f5cc30"/><stop offset="1" stop-color="#f1b234"/></linearGradient></defs><g fill-rule="evenodd"><path d="M1.757 1.636h3.336c.233 0 .3.145.172.34l-.934 1.39c-.13.193-.436.34-.668.34H.24c-.233 0-.31-.15-.172-.34l1.02-1.39a.93.93 0 0 1 .668-.339z" fill="#fc0"/><path d="M5.327.684C5.314.6 5.234.545 5.093.545H1.757a.93.93 0 0 0-.668.339l-1.02 1.39a.31.31 0 0 0-.068.163v.56c.002.097.087.162.24.162h3.423c.233 0 .54-.145.668-.34l.934-1.39c.04-.06.06-.117.064-.165z" fill="#338000"/><path d="M142.418 111.938h12.54c.874 0 1.132.547.645 1.273l-3.51 5.23c-.487.726-1.638 1.273-2.512 1.273h-12.864c-.874 0-1.162-.568-.645-1.273l3.836-5.23c.517-.705 1.638-1.273 2.512-1.273z" fill="url(#A)" transform="matrix(.266068 0 0 .266068 -36.135465 -29.782936)"/></g></svg>