<svg xmlns="http://www.w3.org/2000/svg" viewBox="0 0 5.33 3.704" height="13.999" width="20.145" fill-rule="evenodd"><path d="M1.757 1.636h3.336c.233 0 .3.145.172.34l-.934 1.39c-.13.193-.436.34-.668.34H.24c-.233 0-.31-.15-.172-.34l1.02-1.39a.93.93 0 0 1 .668-.339z" fill="#e6e6e6"/><path d="M5.327.684C5.314.6 5.234.545 5.093.545H1.757a.93.93 0 0 0-.668.339l-1.02 1.39a.31.31 0 0 0-.068.163v.56c.002.097.087.162.24.162h3.423c.233 0 .54-.145.668-.34l.934-1.39c.04-.06.06-.117.064-.165z" fill="#4d4d4d"/><path d="M1.757 0h3.336c.233 0 .3.145.172.34L4.33 1.73c-.13.193-.436.34-.668.34H.24c-.233 0-.31-.15-.172-.34L1.09.34A.93.93 0 0 1 1.757 0z" fill="#e6e6e6"/></svg>